STARTFONT 2.1
COMMENT
COMMENT Converted from OpenType font "Aldrich-Regular.ttf" by "otf2bdf 3.0".
COMMENT
FONT -FreeType-Aldrich-Medium-R-Normal--13-130-72-72-P-65-ISO10646-1
SIZE 13 72 72
FONTBOUNDINGBOX 15 17 -1 -5
STARTPROPERTIES 19
FOUNDRY "FreeType"
FAMILY_NAME "Aldrich"
WEIGHT_NAME "Medium"
SLANT "R"
SETWIDTH_NAME "Normal"
ADD_STYLE_NAME ""
PIXEL_SIZE 13
POINT_SIZE 130
RESOLUTION_X 72
RESOLUTION_Y 72
SPACING "P"
AVERAGE_WIDTH 65
CHARSET_REGISTRY "ISO10646"
CHARSET_ENCODING "1"
FONT_ASCENT 9
FONT_DESCENT 2
COPYRIGHT "Copyright (c) Matthew Desmond, 2011. All rights reserved."
_OTF_FONTFILE "Aldrich-Regular.ttf"
_OTF_PSNAME "Aldrich-Regular"
ENDPROPERTIES
CHARS 248
STARTCHAR 0020
ENCODING 32
SWIDTH 307 0
DWIDTH 4 0
BBX 0 0 0 0
BITMAP
ENDCHAR
STARTCHAR 0021
ENCODING 33
SWIDTH 307 0
DWIDTH 4 0
BBX 2 9 1 0
BITMAP
C0
C0
C0
80
80
80
00
C0
C0
ENDCHAR
STARTCHAR 0022
ENCODING 34
SWIDTH 461 0
DWIDTH 6 0
BBX 4 4 1 5
BITMAP
D0
D0
D0
90
ENDCHAR
STARTCHAR 0023
ENCODING 35
SWIDTH 769 0
DWIDTH 10 0
BBX 8 9 1 0
BITMAP
32
22
FF
24
24
24
FF
44
4C
ENDCHAR
STARTCHAR 0024
ENCODING 36
SWIDTH 692 0
DWIDTH 9 0
BBX 7 11 1 -1
BITMAP
10
FE
92
90
90
FE
12
12
92
FE
10
ENDCHAR
STARTCHAR 0025
ENCODING 37
SWIDTH 923 0
DWIDTH 12 0
BBX 11 9 1 0
BITMAP
F080
9100
9200
9600
F5C0
0B60
1360
3360
61C0
ENDCHAR
STARTCHAR 0026
ENCODING 38
SWIDTH 769 0
DWIDTH 10 0
BBX 8 9 1 0
BITMAP
7C
84
80
80
7F
86
86
86
7F
ENDCHAR
STARTCHAR 0027
ENCODING 39
SWIDTH 307 0
DWIDTH 4 0
BBX 2 4 1 5
BITMAP
C0
C0
C0
80
ENDCHAR
STARTCHAR 0028
ENCODING 40
SWIDTH 384 0
DWIDTH 5 0
BBX 3 13 1 -3
BITMAP
60
C0
80
80
80
80
80
80
80
80
80
C0
60
ENDCHAR
STARTCHAR 0029
ENCODING 41
SWIDTH 384 0
DWIDTH 5 0
BBX 3 13 1 -3
BITMAP
C0
60
20
20
20
20
20
20
20
20
20
60
C0
ENDCHAR
STARTCHAR 002A
ENCODING 42
SWIDTH 538 0
DWIDTH 7 0
BBX 5 5 1 4
BITMAP
20
A8
78
50
58
ENDCHAR
STARTCHAR 002B
ENCODING 43
SWIDTH 692 0
DWIDTH 9 0
BBX 7 7 1 0
BITMAP
10
10
10
FE
10
10
10
ENDCHAR
STARTCHAR 002C
ENCODING 44
SWIDTH 307 0
DWIDTH 4 0
BBX 2 4 1 -2
BITMAP
C0
C0
40
80
ENDCHAR
STARTCHAR 002D
ENCODING 45
SWIDTH 384 0
DWIDTH 5 0
BBX 3 1 1 3
BITMAP
E0
ENDCHAR
STARTCHAR 002E
ENCODING 46
SWIDTH 307 0
DWIDTH 4 0
BBX 2 2 1 0
BITMAP
C0
C0
ENDCHAR
STARTCHAR 002F
ENCODING 47
SWIDTH 461 0
DWIDTH 6 0
BBX 4 11 1 -1
BITMAP
10
30
20
20
20
40
40
40
C0
80
80
ENDCHAR
STARTCHAR 0030
ENCODING 48
SWIDTH 692 0
DWIDTH 9 0
BBX 7 9 1 0
BITMAP
FE
82
82
82
82
82
82
82
FE
ENDCHAR
STARTCHAR 0031
ENCODING 49
SWIDTH 384 0
DWIDTH 5 0
BBX 3 9 0 0
BITMAP
E0
20
20
20
20
20
20
20
20
ENDCHAR
STARTCHAR 0032
ENCODING 50
SWIDTH 692 0
DWIDTH 9 0
BBX 7 9 1 0
BITMAP
FC
86
06
0E
3C
F0
C0
82
FE
ENDCHAR
STARTCHAR 0033
ENCODING 51
SWIDTH 692 0
DWIDTH 9 0
BBX 7 9 1 0
BITMAP
FC
86
06
04
3C
06
06
86
FC
ENDCHAR
STARTCHAR 0034
ENCODING 52
SWIDTH 615 0
DWIDTH 8 0
BBX 8 9 0 0
BITMAP
0C
0C
14
34
64
C4
FF
04
04
ENDCHAR
STARTCHAR 0035
ENCODING 53
SWIDTH 615 0
DWIDTH 8 0
BBX 7 9 1 0
BITMAP
FC
80
80
FC
04
06
06
84
FC
ENDCHAR
STARTCHAR 0036
ENCODING 54
SWIDTH 692 0
DWIDTH 9 0
BBX 7 9 1 0
BITMAP
FE
82
80
80
FE
82
82
82
FE
ENDCHAR
STARTCHAR 0037
ENCODING 55
SWIDTH 615 0
DWIDTH 8 0
BBX 7 9 1 0
BITMAP
FE
0C
08
18
10
30
20
60
40
ENDCHAR
STARTCHAR 0038
ENCODING 56
SWIDTH 692 0
DWIDTH 9 0
BBX 7 9 1 0
BITMAP
7C
82
82
82
7C
82
82
82
7C
ENDCHAR
STARTCHAR 0039
ENCODING 57
SWIDTH 692 0
DWIDTH 9 0
BBX 7 9 1 0
BITMAP
FE
82
82
82
FE
02
02
82
FE
ENDCHAR
STARTCHAR 003A
ENCODING 58
SWIDTH 307 0
DWIDTH 4 0
BBX 2 7 1 0
BITMAP
C0
C0
00
00
00
C0
C0
ENDCHAR
STARTCHAR 003B
ENCODING 59
SWIDTH 307 0
DWIDTH 4 0
BBX 2 9 1 -2
BITMAP
C0
C0
00
00
00
C0
C0
40
80
ENDCHAR
STARTCHAR 003C
ENCODING 60
SWIDTH 692 0
DWIDTH 9 0
BBX 7 7 1 0
BITMAP
06
1C
E0
80
E0
1C
06
ENDCHAR
STARTCHAR 003D
ENCODING 61
SWIDTH 692 0
DWIDTH 9 0
BBX 7 4 1 2
BITMAP
FE
00
00
FE
ENDCHAR
STARTCHAR 003E
ENCODING 62
SWIDTH 692 0
DWIDTH 9 0
BBX 7 7 1 0
BITMAP
80
70
1C
02
1C
70
80
ENDCHAR
STARTCHAR 003F
ENCODING 63
SWIDTH 538 0
DWIDTH 7 0
BBX 6 9 1 0
BITMAP
F8
8C
08
38
20
00
00
60
60
ENDCHAR
STARTCHAR 0040
ENCODING 64
SWIDTH 1076 0
DWIDTH 14 0
BBX 12 12 1 -3
BITMAP
3FC0
4020
8030
9FB0
91B0
91B0
91B0
91B0
9FE0
8000
4000
7FC0
ENDCHAR
STARTCHAR 0041
ENCODING 65
SWIDTH 692 0
DWIDTH 9 0
BBX 9 9 0 0
BITMAP
0800
1C00
1400
1600
3200
2200
7F00
4100
C180
ENDCHAR
STARTCHAR 0042
ENCODING 66
SWIDTH 692 0
DWIDTH 9 0
BBX 7 9 1 0
BITMAP
FC
82
82
82
FC
82
82
82
FE
ENDCHAR
STARTCHAR 0043
ENCODING 67
SWIDTH 769 0
DWIDTH 10 0
BBX 8 9 1 0
BITMAP
FF
83
80
80
80
80
80
83
FF
ENDCHAR
STARTCHAR 0044
ENCODING 68
SWIDTH 769 0
DWIDTH 10 0
BBX 8 9 1 0
BITMAP
FE
83
81
81
81
81
81
83
FE
ENDCHAR
STARTCHAR 0045
ENCODING 69
SWIDTH 692 0
DWIDTH 9 0
BBX 7 9 1 0
BITMAP
FE
80
80
80
FC
80
80
80
FE
ENDCHAR
STARTCHAR 0046
ENCODING 70
SWIDTH 615 0
DWIDTH 8 0
BBX 7 9 1 0
BITMAP
FE
80
80
80
FC
80
80
80
80
ENDCHAR
STARTCHAR 0047
ENCODING 71
SWIDTH 769 0
DWIDTH 10 0
BBX 8 9 1 0
BITMAP
FF
83
80
80
8F
83
83
83
FE
ENDCHAR
STARTCHAR 0048
ENCODING 72
SWIDTH 769 0
DWIDTH 10 0
BBX 8 9 1 0
BITMAP
81
81
81
81
FF
81
81
81
81
ENDCHAR
STARTCHAR 0049
ENCODING 73
SWIDTH 307 0
DWIDTH 4 0
BBX 1 9 1 0
BITMAP
80
80
80
80
80
80
80
80
80
ENDCHAR
STARTCHAR 004A
ENCODING 74
SWIDTH 615 0
DWIDTH 8 0
BBX 6 9 1 0
BITMAP
04
04
04
04
04
04
84
84
FC
ENDCHAR
STARTCHAR 004B
ENCODING 75
SWIDTH 692 0
DWIDTH 9 0
BBX 8 9 1 0
BITMAP
87
8C
98
B0
E0
B0
98
8C
87
ENDCHAR
STARTCHAR 004C
ENCODING 76
SWIDTH 615 0
DWIDTH 8 0
BBX 6 9 1 0
BITMAP
80
80
80
80
80
80
80
80
FC
ENDCHAR
STARTCHAR 004D
ENCODING 77
SWIDTH 923 0
DWIDTH 12 0
BBX 10 9 1 0
BITMAP
C0C0
C0C0
A1C0
A140
9340
9240
8E40
8C40
8440
ENDCHAR
STARTCHAR 004E
ENCODING 78
SWIDTH 769 0
DWIDTH 10 0
BBX 8 9 1 0
BITMAP
C1
E1
A1
91
99
8D
87
83
81
ENDCHAR
STARTCHAR 004F
ENCODING 79
SWIDTH 769 0
DWIDTH 10 0
BBX 8 9 1 0
BITMAP
FF
81
81
81
81
81
81
81
FF
ENDCHAR
STARTCHAR 0050
ENCODING 80
SWIDTH 692 0
DWIDTH 9 0
BBX 7 9 1 0
BITMAP
FE
82
82
82
FE
80
80
80
80
ENDCHAR
STARTCHAR 0051
ENCODING 81
SWIDTH 769 0
DWIDTH 10 0
BBX 8 11 1 -2
BITMAP
FF
81
81
81
81
81
81
99
FF
18
18
ENDCHAR
STARTCHAR 0052
ENCODING 82
SWIDTH 692 0
DWIDTH 9 0
BBX 7 9 1 0
BITMAP
FE
82
82
82
FE
84
84
86
82
ENDCHAR
STARTCHAR 0053
ENCODING 83
SWIDTH 692 0
DWIDTH 9 0
BBX 7 9 1 0
BITMAP
FE
82
80
80
FE
02
02
82
FE
ENDCHAR
STARTCHAR 0054
ENCODING 84
SWIDTH 615 0
DWIDTH 8 0
BBX 8 9 0 0
BITMAP
FF
18
18
18
18
18
18
18
18
ENDCHAR
STARTCHAR 0055
ENCODING 85
SWIDTH 769 0
DWIDTH 10 0
BBX 8 9 1 0
BITMAP
81
81
81
81
81
81
81
81
FF
ENDCHAR
STARTCHAR 0056
ENCODING 86
SWIDTH 692 0
DWIDTH 9 0
BBX 9 9 0 0
BITMAP
C180
4100
6300
2200
2200
1600
1400
1C00
0C00
ENDCHAR
STARTCHAR 0057
ENCODING 87
SWIDTH 1000 0
DWIDTH 13 0
BBX 12 9 0 0
BITMAP
C210
4610
4730
6520
2D20
29E0
38C0
18C0
18C0
ENDCHAR
STARTCHAR 0058
ENCODING 88
SWIDTH 692 0
DWIDTH 9 0
BBX 9 9 0 0
BITMAP
C100
2200
3600
1C00
0800
1C00
3600
6200
C180
ENDCHAR
STARTCHAR 0059
ENCODING 89
SWIDTH 692 0
DWIDTH 9 0
BBX 9 9 0 0
BITMAP
C180
6300
2600
1400
1C00
0800
0800
0800
0800
ENDCHAR
STARTCHAR 005A
ENCODING 90
SWIDTH 692 0
DWIDTH 9 0
BBX 7 9 1 0
BITMAP
FE
04
0C
18
10
30
60
40
FE
ENDCHAR
STARTCHAR 005B
ENCODING 91
SWIDTH 384 0
DWIDTH 5 0
BBX 4 13 1 -3
BITMAP
F0
80
80
80
80
80
80
80
80
80
80
80
F0
ENDCHAR
STARTCHAR 005C
ENCODING 92
SWIDTH 461 0
DWIDTH 6 0
BBX 4 11 1 -1
BITMAP
80
80
C0
40
40
60
20
20
20
10
10
ENDCHAR
STARTCHAR 005D
ENCODING 93
SWIDTH 384 0
DWIDTH 5 0
BBX 3 13 1 -3
BITMAP
E0
20
20
20
20
20
20
20
20
20
20
20
E0
ENDCHAR
STARTCHAR 005E
ENCODING 94
SWIDTH 538 0
DWIDTH 7 0
BBX 6 4 1 5
BITMAP
30
50
C8
8C
ENDCHAR
STARTCHAR 005F
ENCODING 95
SWIDTH 615 0
DWIDTH 8 0
BBX 8 1 0 -4
BITMAP
FF
ENDCHAR
STARTCHAR 0060
ENCODING 96
SWIDTH 384 0
DWIDTH 5 0
BBX 3 1 1 8
BITMAP
E0
ENDCHAR
STARTCHAR 0061
ENCODING 97
SWIDTH 615 0
DWIDTH 8 0
BBX 6 7 1 0
BITMAP
FC
04
04
FC
84
84
FC
ENDCHAR
STARTCHAR 0062
ENCODING 98
SWIDTH 615 0
DWIDTH 8 0
BBX 6 9 1 0
BITMAP
80
80
FC
84
84
84
84
84
FC
ENDCHAR
STARTCHAR 0063
ENCODING 99
SWIDTH 615 0
DWIDTH 8 0
BBX 6 7 1 0
BITMAP
FC
84
80
80
80
84
FC
ENDCHAR
STARTCHAR 0064
ENCODING 100
SWIDTH 615 0
DWIDTH 8 0
BBX 6 9 1 0
BITMAP
04
04
FC
84
84
84
84
84
FC
ENDCHAR
STARTCHAR 0065
ENCODING 101
SWIDTH 615 0
DWIDTH 8 0
BBX 6 7 1 0
BITMAP
FC
84
84
FC
80
80
FC
ENDCHAR
STARTCHAR 0066
ENCODING 102
SWIDTH 461 0
DWIDTH 6 0
BBX 5 9 1 0
BITMAP
78
60
F8
60
60
60
60
60
60
ENDCHAR
STARTCHAR 0067
ENCODING 103
SWIDTH 615 0
DWIDTH 8 0
BBX 6 10 1 -3
BITMAP
FC
84
84
84
84
84
FC
04
04
7C
ENDCHAR
STARTCHAR 0068
ENCODING 104
SWIDTH 615 0
DWIDTH 8 0
BBX 6 9 1 0
BITMAP
80
80
FC
84
84
84
84
84
84
ENDCHAR
STARTCHAR 0069
ENCODING 105
SWIDTH 230 0
DWIDTH 3 0
BBX 1 9 1 0
BITMAP
80
00
80
80
80
80
80
80
80
ENDCHAR
STARTCHAR 006A
ENCODING 106
SWIDTH 230 0
DWIDTH 3 0
BBX 2 12 0 -3
BITMAP
40
00
00
40
40
40
40
40
40
40
40
C0
ENDCHAR
STARTCHAR 006B
ENCODING 107
SWIDTH 538 0
DWIDTH 7 0
BBX 6 9 1 0
BITMAP
80
80
8C
98
B0
E0
A0
98
8C
ENDCHAR
STARTCHAR 006C
ENCODING 108
SWIDTH 230 0
DWIDTH 3 0
BBX 1 9 1 0
BITMAP
80
80
80
80
80
80
80
80
80
ENDCHAR
STARTCHAR 006D
ENCODING 109
SWIDTH 923 0
DWIDTH 12 0
BBX 10 7 1 0
BITMAP
FB80
8CC0
88C0
88C0
88C0
88C0
88C0
ENDCHAR
STARTCHAR 006E
ENCODING 110
SWIDTH 615 0
DWIDTH 8 0
BBX 6 7 1 0
BITMAP
FC
84
84
84
84
84
84
ENDCHAR
STARTCHAR 006F
ENCODING 111
SWIDTH 615 0
DWIDTH 8 0
BBX 6 7 1 0
BITMAP
FC
84
84
84
84
84
FC
ENDCHAR
STARTCHAR 0070
ENCODING 112
SWIDTH 615 0
DWIDTH 8 0
BBX 6 10 1 -3
BITMAP
FC
84
84
84
84
84
FC
80
80
80
ENDCHAR
STARTCHAR 0071
ENCODING 113
SWIDTH 615 0
DWIDTH 8 0
BBX 6 10 1 -3
BITMAP
FC
84
84
84
84
84
FC
04
04
04
ENDCHAR
STARTCHAR 0072
ENCODING 114
SWIDTH 538 0
DWIDTH 7 0
BBX 5 7 1 0
BITMAP
B8
C8
80
80
80
80
80
ENDCHAR
STARTCHAR 0073
ENCODING 115
SWIDTH 538 0
DWIDTH 7 0
BBX 5 7 1 0
BITMAP
F8
80
80
F8
08
08
F8
ENDCHAR
STARTCHAR 0074
ENCODING 116
SWIDTH 538 0
DWIDTH 7 0
BBX 5 9 1 0
BITMAP
60
60
F8
60
60
60
60
60
38
ENDCHAR
STARTCHAR 0075
ENCODING 117
SWIDTH 615 0
DWIDTH 8 0
BBX 6 7 1 0
BITMAP
84
84
84
84
84
84
FC
ENDCHAR
STARTCHAR 0076
ENCODING 118
SWIDTH 538 0
DWIDTH 7 0
BBX 7 7 0 0
BITMAP
C6
44
64
2C
28
38
10
ENDCHAR
STARTCHAR 0077
ENCODING 119
SWIDTH 846 0
DWIDTH 11 0
BBX 10 7 0 0
BITMAP
CC40
4C40
4E80
6A80
3280
3380
3100
ENDCHAR
STARTCHAR 0078
ENCODING 120
SWIDTH 538 0
DWIDTH 7 0
BBX 7 7 0 0
BITMAP
46
2C
38
18
38
6C
C6
ENDCHAR
STARTCHAR 0079
ENCODING 121
SWIDTH 538 0
DWIDTH 7 0
BBX 7 10 0 -3
BITMAP
C6
44
64
28
28
18
10
30
20
60
ENDCHAR
STARTCHAR 007A
ENCODING 122
SWIDTH 538 0
DWIDTH 7 0
BBX 6 7 1 0
BITMAP
FC
18
30
20
60
40
FC
ENDCHAR
STARTCHAR 007B
ENCODING 123
SWIDTH 384 0
DWIDTH 5 0
BBX 4 13 0 -3
BITMAP
30
20
60
60
20
60
C0
60
20
60
60
20
30
ENDCHAR
STARTCHAR 007C
ENCODING 124
SWIDTH 307 0
DWIDTH 4 0
BBX 1 13 1 -3
BITMAP
80
80
80
80
80
80
80
80
80
80
80
80
80
ENDCHAR
STARTCHAR 007D
ENCODING 125
SWIDTH 384 0
DWIDTH 5 0
BBX 4 13 1 -3
BITMAP
C0
40
60
60
60
60
30
60
60
60
60
40
C0
ENDCHAR
STARTCHAR 007E
ENCODING 126
SWIDTH 615 0
DWIDTH 8 0
BBX 6 2 1 3
BITMAP
E4
98
ENDCHAR
STARTCHAR 00A0
ENCODING 160
SWIDTH 307 0
DWIDTH 4 0
BBX 0 0 0 0
BITMAP
ENDCHAR
STARTCHAR 00A1
ENCODING 161
SWIDTH 307 0
DWIDTH 4 0
BBX 2 9 1 -3
BITMAP
C0
C0
00
80
80
80
C0
C0
C0
ENDCHAR
STARTCHAR 00A2
ENCODING 162
SWIDTH 615 0
DWIDTH 8 0
BBX 6 9 1 -1
BITMAP
30
FC
84
80
80
80
84
FC
30
ENDCHAR
STARTCHAR 00A3
ENCODING 163
SWIDTH 692 0
DWIDTH 9 0
BBX 8 9 1 0
BITMAP
7E
42
40
40
F8
40
40
43
FE
ENDCHAR
STARTCHAR 00A4
ENCODING 164
SWIDTH 615 0
DWIDTH 8 0
BBX 6 7 1 1
BITMAP
84
7C
4C
C4
4C
7C
84
ENDCHAR
STARTCHAR 00A5
ENCODING 165
SWIDTH 692 0
DWIDTH 9 0
BBX 9 9 0 0
BITMAP
C180
6300
2600
1600
1C00
7F00
7F00
0800
0800
ENDCHAR
STARTCHAR 00A6
ENCODING 166
SWIDTH 307 0
DWIDTH 4 0
BBX 1 13 1 -3
BITMAP
80
80
80
80
80
80
00
80
80
80
80
80
80
ENDCHAR
STARTCHAR 00A7
ENCODING 167
SWIDTH 692 0
DWIDTH 9 0
BBX 7 12 1 -3
BITMAP
7E
C6
C0
C0
7C
C6
C6
C6
7E
06
86
FE
ENDCHAR
STARTCHAR 00A8
ENCODING 168
SWIDTH 461 0
DWIDTH 6 0
BBX 4 1 1 8
BITMAP
B0
ENDCHAR
STARTCHAR 00A9
ENCODING 169
SWIDTH 846 0
DWIDTH 11 0
BBX 9 9 1 0
BITMAP
3E00
4300
BD80
A480
A080
A480
BD80
4300
3E00
ENDCHAR
STARTCHAR 00AA
ENCODING 170
SWIDTH 461 0
DWIDTH 6 0
BBX 4 7 1 2
BITMAP
F0
10
F0
90
F0
00
F0
ENDCHAR
STARTCHAR 00AB
ENCODING 171
SWIDTH 538 0
DWIDTH 7 0
BBX 5 6 1 0
BITMAP
48
48
90
B0
48
48
ENDCHAR
STARTCHAR 00AC
ENCODING 172
SWIDTH 692 0
DWIDTH 9 0
BBX 7 3 1 2
BITMAP
FE
02
02
ENDCHAR
STARTCHAR 00AE
ENCODING 174
SWIDTH 846 0
DWIDTH 11 0
BBX 9 9 1 0
BITMAP
3E00
4300
BD80
A480
BC80
A480
A580
4300
3E00
ENDCHAR
STARTCHAR 00AF
ENCODING 175
SWIDTH 461 0
DWIDTH 6 0
BBX 4 1 1 8
BITMAP
F0
ENDCHAR
STARTCHAR 00B0
ENCODING 176
SWIDTH 461 0
DWIDTH 6 0
BBX 4 4 1 5
BITMAP
E0
90
90
E0
ENDCHAR
STARTCHAR 00B1
ENCODING 177
SWIDTH 692 0
DWIDTH 9 0
BBX 7 7 1 0
BITMAP
10
10
FE
10
10
10
FE
ENDCHAR
STARTCHAR 00B2
ENCODING 178
SWIDTH 384 0
DWIDTH 5 0
BBX 4 5 1 4
BITMAP
E0
A0
60
80
F0
ENDCHAR
STARTCHAR 00B3
ENCODING 179
SWIDTH 384 0
DWIDTH 5 0
BBX 4 5 1 4
BITMAP
E0
90
60
90
E0
ENDCHAR
STARTCHAR 00B4
ENCODING 180
SWIDTH 384 0
DWIDTH 5 0
BBX 3 1 1 8
BITMAP
E0
ENDCHAR
STARTCHAR 00B5
ENCODING 181
SWIDTH 615 0
DWIDTH 8 0
BBX 6 10 1 -3
BITMAP
84
84
84
84
84
84
FC
80
80
80
ENDCHAR
STARTCHAR 00B6
ENCODING 182
SWIDTH 692 0
DWIDTH 9 0
BBX 7 12 1 -3
BITMAP
FE
F2
F2
F2
F2
72
12
12
12
12
12
12
ENDCHAR
STARTCHAR 00B7
ENCODING 183
SWIDTH 307 0
DWIDTH 4 0
BBX 2 2 1 3
BITMAP
C0
C0
ENDCHAR
STARTCHAR 00B8
ENCODING 184
SWIDTH 538 0
DWIDTH 7 0
BBX 2 3 2 -3
BITMAP
40
C0
C0
ENDCHAR
STARTCHAR 00B9
ENCODING 185
SWIDTH 230 0
DWIDTH 3 0
BBX 1 5 1 4
BITMAP
80
80
80
80
80
ENDCHAR
STARTCHAR 00BA
ENCODING 186
SWIDTH 461 0
DWIDTH 6 0
BBX 4 7 1 2
BITMAP
F0
90
90
90
F0
00
F0
ENDCHAR
STARTCHAR 00BB
ENCODING 187
SWIDTH 538 0
DWIDTH 7 0
BBX 6 6 1 0
BITMAP
A0
90
48
6C
90
A0
ENDCHAR
STARTCHAR 00BC
ENCODING 188
SWIDTH 769 0
DWIDTH 10 0
BBX 8 9 1 0
BITMAP
82
84
8C
88
93
23
25
4F
81
ENDCHAR
STARTCHAR 00BD
ENCODING 189
SWIDTH 846 0
DWIDTH 11 0
BBX 9 9 1 0
BITMAP
8200
8400
8C00
8800
9380
2480
2100
4680
8780
ENDCHAR
STARTCHAR 00BE
ENCODING 190
SWIDTH 923 0
DWIDTH 12 0
BBX 10 9 1 0
BITMAP
E080
9100
6200
9200
F4C0
0940
0940
13C0
2040
ENDCHAR
STARTCHAR 00BF
ENCODING 191
SWIDTH 538 0
DWIDTH 7 0
BBX 6 9 1 -3
BITMAP
30
30
00
00
30
60
80
8C
F8
ENDCHAR
STARTCHAR 00C0
ENCODING 192
SWIDTH 692 0
DWIDTH 9 0
BBX 9 12 0 0
BITMAP
3800
0400
0000
0800
1C00
1400
1600
3200
2200
7F00
4100
C180
ENDCHAR
STARTCHAR 00C1
ENCODING 193
SWIDTH 692 0
DWIDTH 9 0
BBX 9 12 0 0
BITMAP
0E00
1000
0000
0800
1C00
1400
1600
3200
2200
7F00
4100
C180
ENDCHAR
STARTCHAR 00C2
ENCODING 194
SWIDTH 692 0
DWIDTH 9 0
BBX 9 12 0 0
BITMAP
1C00
3600
0000
0800
1C00
1400
1600
3200
2200
7F00
4100
C180
ENDCHAR
STARTCHAR 00C3
ENCODING 195
SWIDTH 692 0
DWIDTH 9 0
BBX 9 12 0 0
BITMAP
1A00
2E00
0000
0800
1C00
1400
1600
3200
2200
7F00
4100
C180
ENDCHAR
STARTCHAR 00C4
ENCODING 196
SWIDTH 692 0
DWIDTH 9 0
BBX 9 11 0 0
BITMAP
1600
0000
0800
1C00
1400
1600
3200
2200
7F00
4100
C180
ENDCHAR
STARTCHAR 00C5
ENCODING 197
SWIDTH 692 0
DWIDTH 9 0
BBX 9 12 0 0
BITMAP
1C00
1400
1400
0C00
1C00
1400
3600
3200
2200
7F00
4100
C180
ENDCHAR
STARTCHAR 00C6
ENCODING 198
SWIDTH 1153 0
DWIDTH 15 0
BBX 14 9 0 0
BITMAP
01FC
0380
0680
0C80
08F8
1880
3F80
6080
C0FC
ENDCHAR
STARTCHAR 00C7
ENCODING 199
SWIDTH 769 0
DWIDTH 10 0
BBX 8 12 1 -3
BITMAP
FF
83
80
80
80
80
80
83
FF
10
08
18
ENDCHAR
STARTCHAR 00C8
ENCODING 200
SWIDTH 692 0
DWIDTH 9 0
BBX 7 12 1 0
BITMAP
70
08
00
FE
80
80
80
FC
80
80
80
FE
ENDCHAR
STARTCHAR 00C9
ENCODING 201
SWIDTH 692 0
DWIDTH 9 0
BBX 7 12 1 0
BITMAP
18
20
00
FE
80
80
80
FC
80
80
80
FE
ENDCHAR
STARTCHAR 00CA
ENCODING 202
SWIDTH 692 0
DWIDTH 9 0
BBX 7 12 1 0
BITMAP
38
6C
00
FE
80
80
80
FC
80
80
80
FE
ENDCHAR
STARTCHAR 00CB
ENCODING 203
SWIDTH 692 0
DWIDTH 9 0
BBX 7 11 1 0
BITMAP
2C
00
FE
80
80
80
FC
80
80
80
FE
ENDCHAR
STARTCHAR 00CC
ENCODING 204
SWIDTH 307 0
DWIDTH 4 0
BBX 3 12 0 0
BITMAP
C0
20
00
40
40
40
40
40
40
40
40
40
ENDCHAR
STARTCHAR 00CD
ENCODING 205
SWIDTH 307 0
DWIDTH 4 0
BBX 3 12 1 0
BITMAP
60
80
00
80
80
80
80
80
80
80
80
80
ENDCHAR
STARTCHAR 00CE
ENCODING 206
SWIDTH 307 0
DWIDTH 4 0
BBX 4 12 0 0
BITMAP
60
90
00
40
40
40
40
40
40
40
40
40
ENDCHAR
STARTCHAR 00CF
ENCODING 207
SWIDTH 307 0
DWIDTH 4 0
BBX 4 11 0 0
BITMAP
B0
00
40
40
40
40
40
40
40
40
40
ENDCHAR
STARTCHAR 00D0
ENCODING 208
SWIDTH 769 0
DWIDTH 10 0
BBX 9 9 0 0
BITMAP
7F00
6180
6080
6080
F880
6080
6080
6180
7F00
ENDCHAR
STARTCHAR 00D1
ENCODING 209
SWIDTH 769 0
DWIDTH 10 0
BBX 8 12 1 0
BITMAP
32
2C
00
C1
E1
A1
91
99
8D
87
83
81
ENDCHAR
STARTCHAR 00D2
ENCODING 210
SWIDTH 769 0
DWIDTH 10 0
BBX 8 12 1 0
BITMAP
30
08
00
FF
81
81
81
81
81
81
81
FF
ENDCHAR
STARTCHAR 00D3
ENCODING 211
SWIDTH 769 0
DWIDTH 10 0
BBX 8 12 1 0
BITMAP
0C
10
00
FF
81
81
81
81
81
81
81
FF
ENDCHAR
STARTCHAR 00D4
ENCODING 212
SWIDTH 769 0
DWIDTH 10 0
BBX 8 12 1 0
BITMAP
18
24
00
FF
81
81
81
81
81
81
81
FF
ENDCHAR
STARTCHAR 00D5
ENCODING 213
SWIDTH 769 0
DWIDTH 10 0
BBX 8 12 1 0
BITMAP
32
2C
00
FF
81
81
81
81
81
81
81
FF
ENDCHAR
STARTCHAR 00D6
ENCODING 214
SWIDTH 769 0
DWIDTH 10 0
BBX 8 11 1 0
BITMAP
24
00
FF
81
81
81
81
81
81
81
FF
ENDCHAR
STARTCHAR 00D7
ENCODING 215
SWIDTH 692 0
DWIDTH 9 0
BBX 7 7 1 0
BITMAP
84
CE
78
30
78
CC
86
ENDCHAR
STARTCHAR 00D8
ENCODING 216
SWIDTH 769 0
DWIDTH 10 0
BBX 8 11 1 -1
BITMAP
01
FE
85
85
89
89
91
B1
A1
7F
C0
ENDCHAR
STARTCHAR 00D9
ENCODING 217
SWIDTH 769 0
DWIDTH 10 0
BBX 8 12 1 0
BITMAP
30
08
00
81
81
81
81
81
81
81
81
FF
ENDCHAR
STARTCHAR 00DA
ENCODING 218
SWIDTH 769 0
DWIDTH 10 0
BBX 8 12 1 0
BITMAP
0C
10
00
81
81
81
81
81
81
81
81
FF
ENDCHAR
STARTCHAR 00DB
ENCODING 219
SWIDTH 769 0
DWIDTH 10 0
BBX 8 12 1 0
BITMAP
18
24
00
81
81
81
81
81
81
81
81
FF
ENDCHAR
STARTCHAR 00DC
ENCODING 220
SWIDTH 769 0
DWIDTH 10 0
BBX 8 11 1 0
BITMAP
24
00
81
81
81
81
81
81
81
81
FF
ENDCHAR
STARTCHAR 00DD
ENCODING 221
SWIDTH 692 0
DWIDTH 9 0
BBX 9 12 0 0
BITMAP
0E00
0000
0000
C180
6200
2600
1400
1C00
0800
0800
0800
0800
ENDCHAR
STARTCHAR 00DE
ENCODING 222
SWIDTH 692 0
DWIDTH 9 0
BBX 7 9 1 0
BITMAP
80
80
FE
82
82
82
FE
80
80
ENDCHAR
STARTCHAR 00DF
ENCODING 223
SWIDTH 692 0
DWIDTH 9 0
BBX 7 9 1 0
BITMAP
FC
84
8C
98
B0
9E
82
82
BE
ENDCHAR
STARTCHAR 00E0
ENCODING 224
SWIDTH 615 0
DWIDTH 8 0
BBX 6 9 1 0
BITMAP
60
10
FC
04
04
FC
84
84
FC
ENDCHAR
STARTCHAR 00E1
ENCODING 225
SWIDTH 615 0
DWIDTH 8 0
BBX 6 9 1 0
BITMAP
18
20
FC
04
04
FC
84
84
FC
ENDCHAR
STARTCHAR 00E2
ENCODING 226
SWIDTH 615 0
DWIDTH 8 0
BBX 6 9 1 0
BITMAP
30
48
FC
04
04
FC
84
84
FC
ENDCHAR
STARTCHAR 00E3
ENCODING 227
SWIDTH 615 0
DWIDTH 8 0
BBX 6 10 1 0
BITMAP
6C
58
00
FC
04
04
FC
84
84
FC
ENDCHAR
STARTCHAR 00E4
ENCODING 228
SWIDTH 615 0
DWIDTH 8 0
BBX 6 9 1 0
BITMAP
48
00
FC
04
04
FC
84
84
FC
ENDCHAR
STARTCHAR 00E5
ENCODING 229
SWIDTH 615 0
DWIDTH 8 0
BBX 6 11 1 0
BITMAP
30
48
30
00
FC
04
04
FC
84
84
FC
ENDCHAR
STARTCHAR 00E6
ENCODING 230
SWIDTH 923 0
DWIDTH 12 0
BBX 10 7 1 0
BITMAP
FFC0
0440
0440
FFC0
8400
8400
FFC0
ENDCHAR
STARTCHAR 00E7
ENCODING 231
SWIDTH 615 0
DWIDTH 8 0
BBX 6 10 1 -3
BITMAP
FC
84
80
80
80
84
FC
20
10
70
ENDCHAR
STARTCHAR 00E8
ENCODING 232
SWIDTH 615 0
DWIDTH 8 0
BBX 6 9 1 0
BITMAP
60
10
FC
84
84
FC
80
80
FC
ENDCHAR
STARTCHAR 00E9
ENCODING 233
SWIDTH 615 0
DWIDTH 8 0
BBX 6 9 1 0
BITMAP
18
20
FC
84
84
FC
80
80
FC
ENDCHAR
STARTCHAR 00EA
ENCODING 234
SWIDTH 615 0
DWIDTH 8 0
BBX 6 9 1 0
BITMAP
30
48
FC
84
84
FC
80
80
FC
ENDCHAR
STARTCHAR 00EB
ENCODING 235
SWIDTH 615 0
DWIDTH 8 0
BBX 6 9 1 0
BITMAP
48
00
FC
84
84
FC
80
80
FC
ENDCHAR
STARTCHAR 00EC
ENCODING 236
SWIDTH 230 0
DWIDTH 3 0
BBX 3 9 0 0
BITMAP
C0
20
40
40
40
40
40
40
40
ENDCHAR
STARTCHAR 00ED
ENCODING 237
SWIDTH 230 0
DWIDTH 3 0
BBX 3 9 1 0
BITMAP
60
80
80
80
80
80
80
80
80
ENDCHAR
STARTCHAR 00EE
ENCODING 238
SWIDTH 230 0
DWIDTH 3 0
BBX 5 9 -1 0
BITMAP
70
88
20
20
20
20
20
20
20
ENDCHAR
STARTCHAR 00EF
ENCODING 239
SWIDTH 230 0
DWIDTH 3 0
BBX 4 9 0 0
BITMAP
B0
00
40
40
40
40
40
40
40
ENDCHAR
STARTCHAR 00F0
ENCODING 240
SWIDTH 615 0
DWIDTH 8 0
BBX 6 10 1 0
BITMAP
38
1C
28
FC
84
84
84
84
84
FC
ENDCHAR
STARTCHAR 00F1
ENCODING 241
SWIDTH 615 0
DWIDTH 8 0
BBX 6 10 1 0
BITMAP
6C
58
00
FC
84
84
84
84
84
84
ENDCHAR
STARTCHAR 00F2
ENCODING 242
SWIDTH 615 0
DWIDTH 8 0
BBX 6 9 1 0
BITMAP
60
10
FC
84
84
84
84
84
FC
ENDCHAR
STARTCHAR 00F3
ENCODING 243
SWIDTH 615 0
DWIDTH 8 0
BBX 6 9 1 0
BITMAP
18
20
FC
84
84
84
84
84
FC
ENDCHAR
STARTCHAR 00F4
ENCODING 244
SWIDTH 615 0
DWIDTH 8 0
BBX 6 9 1 0
BITMAP
30
48
FC
84
84
84
84
84
FC
ENDCHAR
STARTCHAR 00F5
ENCODING 245
SWIDTH 615 0
DWIDTH 8 0
BBX 6 10 1 0
BITMAP
68
98
00
FC
84
84
84
84
84
FC
ENDCHAR
STARTCHAR 00F6
ENCODING 246
SWIDTH 615 0
DWIDTH 8 0
BBX 6 9 1 0
BITMAP
48
00
FC
84
84
84
84
84
FC
ENDCHAR
STARTCHAR 00F7
ENCODING 247
SWIDTH 692 0
DWIDTH 9 0
BBX 7 7 1 0
BITMAP
10
10
00
FE
00
10
10
ENDCHAR
STARTCHAR 00F8
ENCODING 248
SWIDTH 615 0
DWIDTH 8 0
BBX 6 9 1 -1
BITMAP
04
F8
94
94
A4
A4
A4
7C
80
ENDCHAR
STARTCHAR 00F9
ENCODING 249
SWIDTH 615 0
DWIDTH 8 0
BBX 6 9 1 0
BITMAP
60
10
84
84
84
84
84
84
FC
ENDCHAR
STARTCHAR 00FA
ENCODING 250
SWIDTH 615 0
DWIDTH 8 0
BBX 6 9 1 0
BITMAP
18
20
84
84
84
84
84
84
FC
ENDCHAR
STARTCHAR 00FB
ENCODING 251
SWIDTH 615 0
DWIDTH 8 0
BBX 6 9 1 0
BITMAP
30
48
84
84
84
84
84
84
FC
ENDCHAR
STARTCHAR 00FC
ENCODING 252
SWIDTH 615 0
DWIDTH 8 0
BBX 6 9 1 0
BITMAP
48
00
84
84
84
84
84
84
FC
ENDCHAR
STARTCHAR 00FD
ENCODING 253
SWIDTH 538 0
DWIDTH 7 0
BBX 7 12 0 -3
BITMAP
0C
10
00
C6
44
2C
28
38
10
10
20
60
ENDCHAR
STARTCHAR 00FE
ENCODING 254
SWIDTH 615 0
DWIDTH 8 0
BBX 6 12 1 -3
BITMAP
80
80
FC
84
84
84
84
84
FC
80
80
80
ENDCHAR
STARTCHAR 00FF
ENCODING 255
SWIDTH 538 0
DWIDTH 7 0
BBX 7 12 0 -3
BITMAP
2C
00
C2
44
44
2C
28
38
10
10
20
60
ENDCHAR
STARTCHAR 0127
ENCODING 295
SWIDTH 615 0
DWIDTH 8 0
BBX 7 9 0 0
BITMAP
F8
40
7E
42
42
42
42
42
42
ENDCHAR
STARTCHAR 0128
ENCODING 296
SWIDTH 307 0
DWIDTH 4 0
BBX 5 12 -1 0
BITMAP
68
98
00
20
20
20
20
20
20
20
20
20
ENDCHAR
STARTCHAR 0129
ENCODING 297
SWIDTH 230 0
DWIDTH 3 0
BBX 5 10 -1 0
BITMAP
68
98
00
20
20
20
20
20
20
20
ENDCHAR
STARTCHAR 0131
ENCODING 305
SWIDTH 230 0
DWIDTH 3 0
BBX 1 7 1 0
BITMAP
80
80
80
80
80
80
80
ENDCHAR
STARTCHAR 0132
ENCODING 306
SWIDTH 923 0
DWIDTH 12 0
BBX 10 9 1 0
BITMAP
8040
8040
8040
8040
8040
8040
8840
8840
8FC0
ENDCHAR
STARTCHAR 0133
ENCODING 307
SWIDTH 538 0
DWIDTH 7 0
BBX 5 12 1 -3
BITMAP
98
00
80
88
88
88
88
88
88
08
08
18
ENDCHAR
STARTCHAR 0134
ENCODING 308
SWIDTH 615 0
DWIDTH 8 0
BBX 8 12 1 0
BITMAP
0E
1B
00
04
04
04
04
04
04
84
84
FC
ENDCHAR
STARTCHAR 0135
ENCODING 309
SWIDTH 230 0
DWIDTH 3 0
BBX 5 12 -1 -3
BITMAP
70
C8
00
20
20
20
20
20
20
20
20
60
ENDCHAR
STARTCHAR 0137
ENCODING 311
SWIDTH 538 0
DWIDTH 7 0
BBX 6 14 1 -5
BITMAP
80
80
80
9C
B0
E0
A0
90
8C
00
30
30
20
20
ENDCHAR
STARTCHAR 0138
ENCODING 312
SWIDTH 538 0
DWIDTH 7 0
BBX 6 7 1 0
BITMAP
8C
90
A0
E0
B0
98
8C
ENDCHAR
STARTCHAR 013F
ENCODING 319
SWIDTH 615 0
DWIDTH 8 0
BBX 6 9 1 0
BITMAP
80
80
80
98
98
80
80
80
FC
ENDCHAR
STARTCHAR 0140
ENCODING 320
SWIDTH 461 0
DWIDTH 6 0
BBX 4 9 1 0
BITMAP
80
80
80
90
90
80
80
80
80
ENDCHAR
STARTCHAR 0141
ENCODING 321
SWIDTH 615 0
DWIDTH 8 0
BBX 7 9 0 0
BITMAP
60
60
60
68
78
E0
60
60
7E
ENDCHAR
STARTCHAR 0142
ENCODING 322
SWIDTH 307 0
DWIDTH 4 0
BBX 4 9 0 0
BITMAP
20
20
20
30
30
E0
20
20
20
ENDCHAR
STARTCHAR 0143
ENCODING 323
SWIDTH 769 0
DWIDTH 10 0
BBX 8 12 1 0
BITMAP
0E
10
00
C1
E1
B1
91
89
8D
87
83
81
ENDCHAR
STARTCHAR 0144
ENCODING 324
SWIDTH 615 0
DWIDTH 8 0
BBX 6 9 1 0
BITMAP
18
20
FC
84
84
84
84
84
84
ENDCHAR
STARTCHAR 0152
ENCODING 338
SWIDTH 1076 0
DWIDTH 14 0
BBX 13 9 1 0
BITMAP
FFF8
8200
8200
8200
83F0
8200
8200
8200
FFF8
ENDCHAR
STARTCHAR 0153
ENCODING 339
SWIDTH 923 0
DWIDTH 12 0
BBX 10 7 1 0
BITMAP
FFC0
8440
8440
87C0
8400
8400
FFC0
ENDCHAR
STARTCHAR 0154
ENCODING 340
SWIDTH 692 0
DWIDTH 9 0
BBX 7 12 1 0
BITMAP
1C
00
00
FE
82
82
82
FE
84
84
86
82
ENDCHAR
STARTCHAR 0156
ENCODING 342
SWIDTH 692 0
DWIDTH 9 0
BBX 7 14 1 -5
BITMAP
FE
82
82
82
FE
84
84
86
82
00
18
18
10
10
ENDCHAR
STARTCHAR 0157
ENCODING 343
SWIDTH 538 0
DWIDTH 7 0
BBX 5 12 1 -5
BITMAP
B8
C8
80
80
80
80
80
00
C0
C0
40
80
ENDCHAR
STARTCHAR 0158
ENCODING 344
SWIDTH 692 0
DWIDTH 9 0
BBX 7 12 1 0
BITMAP
6C
18
00
FE
82
82
82
FE
84
84
86
82
ENDCHAR
STARTCHAR 0159
ENCODING 345
SWIDTH 538 0
DWIDTH 7 0
BBX 5 9 1 0
BITMAP
D8
20
B8
C8
80
80
80
80
80
ENDCHAR
STARTCHAR 0160
ENCODING 352
SWIDTH 692 0
DWIDTH 9 0
BBX 7 12 1 0
BITMAP
6C
18
00
FE
82
80
80
FE
02
02
82
FE
ENDCHAR
STARTCHAR 0161
ENCODING 353
SWIDTH 538 0
DWIDTH 7 0
BBX 5 9 1 0
BITMAP
D8
20
F8
80
80
F8
08
08
F8
ENDCHAR
STARTCHAR 0178
ENCODING 376
SWIDTH 692 0
DWIDTH 9 0
BBX 9 11 0 0
BITMAP
3400
0000
C180
6300
2600
1400
1C00
0800
0800
0800
0800
ENDCHAR
STARTCHAR 017D
ENCODING 381
SWIDTH 692 0
DWIDTH 9 0
BBX 7 12 1 0
BITMAP
6C
10
00
FE
04
0C
18
10
30
60
40
FE
ENDCHAR
STARTCHAR 017E
ENCODING 382
SWIDTH 538 0
DWIDTH 7 0
BBX 6 9 1 0
BITMAP
D8
20
FC
18
30
20
60
40
FC
ENDCHAR
STARTCHAR 0192
ENCODING 402
SWIDTH 461 0
DWIDTH 6 0
BBX 7 12 -1 -3
BITMAP
0E
08
08
3E
18
10
10
10
10
30
30
E0
ENDCHAR
STARTCHAR 02C6
ENCODING 710
SWIDTH 461 0
DWIDTH 6 0
BBX 4 1 1 8
BITMAP
F0
ENDCHAR
STARTCHAR 02C7
ENCODING 711
SWIDTH 461 0
DWIDTH 6 0
BBX 4 1 1 8
BITMAP
F0
ENDCHAR
STARTCHAR 02D8
ENCODING 728
SWIDTH 461 0
DWIDTH 6 0
BBX 4 2 1 8
BITMAP
90
70
ENDCHAR
STARTCHAR 02D9
ENCODING 729
SWIDTH 230 0
DWIDTH 3 0
BBX 1 2 1 8
BITMAP
80
80
ENDCHAR
STARTCHAR 02DA
ENCODING 730
SWIDTH 538 0
DWIDTH 7 0
BBX 4 3 1 8
BITMAP
60
90
60
ENDCHAR
STARTCHAR 02DB
ENCODING 731
SWIDTH 307 0
DWIDTH 4 0
BBX 2 3 1 -3
BITMAP
80
80
C0
ENDCHAR
STARTCHAR 02DC
ENCODING 732
SWIDTH 538 0
DWIDTH 7 0
BBX 5 2 1 8
BITMAP
C8
B0
ENDCHAR
STARTCHAR 02DD
ENCODING 733
SWIDTH 615 0
DWIDTH 8 0
BBX 6 1 1 8
BITMAP
FC
ENDCHAR
STARTCHAR 0307
ENCODING 775
SWIDTH 230 0
DWIDTH 3 0
BBX 1 2 1 8
BITMAP
80
80
ENDCHAR
STARTCHAR 2013
ENCODING 8211
SWIDTH 769 0
DWIDTH 10 0
BBX 8 1 1 3
BITMAP
FF
ENDCHAR
STARTCHAR 2014
ENCODING 8212
SWIDTH 1000 0
DWIDTH 13 0
BBX 11 1 1 3
BITMAP
FFE0
ENDCHAR
STARTCHAR 2018
ENCODING 8216
SWIDTH 307 0
DWIDTH 4 0
BBX 2 4 1 5
BITMAP
40
80
C0
C0
ENDCHAR
STARTCHAR 2019
ENCODING 8217
SWIDTH 307 0
DWIDTH 4 0
BBX 2 4 1 5
BITMAP
C0
C0
40
80
ENDCHAR
STARTCHAR 201A
ENCODING 8218
SWIDTH 307 0
DWIDTH 4 0
BBX 2 4 1 -2
BITMAP
C0
C0
40
80
ENDCHAR
STARTCHAR 201C
ENCODING 8220
SWIDTH 538 0
DWIDTH 7 0
BBX 4 4 1 5
BITMAP
50
90
D0
D0
ENDCHAR
STARTCHAR 201D
ENCODING 8221
SWIDTH 538 0
DWIDTH 7 0
BBX 4 4 1 5
BITMAP
D0
D0
50
90
ENDCHAR
STARTCHAR 201E
ENCODING 8222
SWIDTH 538 0
DWIDTH 7 0
BBX 4 4 1 -2
BITMAP
D0
D0
50
90
ENDCHAR
STARTCHAR 2020
ENCODING 8224
SWIDTH 615 0
DWIDTH 8 0
BBX 6 12 1 -3
BITMAP
30
30
30
FC
30
30
30
30
30
30
30
30
ENDCHAR
STARTCHAR 2021
ENCODING 8225
SWIDTH 615 0
DWIDTH 8 0
BBX 6 12 1 -3
BITMAP
30
30
30
FC
30
30
30
30
FC
30
30
30
ENDCHAR
STARTCHAR 2022
ENCODING 8226
SWIDTH 461 0
DWIDTH 6 0
BBX 4 5 1 2
BITMAP
60
F0
F0
F0
60
ENDCHAR
STARTCHAR 2026
ENCODING 8230
SWIDTH 769 0
DWIDTH 10 0
BBX 8 2 1 0
BITMAP
DB
DB
ENDCHAR
STARTCHAR 2039
ENCODING 8249
SWIDTH 307 0
DWIDTH 4 0
BBX 2 6 1 0
BITMAP
40
40
80
80
40
40
ENDCHAR
STARTCHAR 203A
ENCODING 8250
SWIDTH 307 0
DWIDTH 4 0
BBX 3 6 1 0
BITMAP
80
80
40
60
80
80
ENDCHAR
STARTCHAR 2044
ENCODING 8260
SWIDTH 538 0
DWIDTH 7 0
BBX 7 9 0 0
BITMAP
02
04
0C
08
10
30
20
40
80
ENDCHAR
STARTCHAR 20AC
ENCODING 8364
SWIDTH 769 0
DWIDTH 10 0
BBX 9 9 0 0
BITMAP
3F80
2080
2000
FF00
2000
FC00
2000
2080
3F80
ENDCHAR
STARTCHAR 2122
ENCODING 8482
SWIDTH 923 0
DWIDTH 12 0
BBX 10 4 1 5
BITMAP
FCC0
4CC0
4B40
4A40
ENDCHAR
STARTCHAR 2212
ENCODING 8722
SWIDTH 692 0
DWIDTH 9 0
BBX 7 1 1 3
BITMAP
FE
ENDCHAR
STARTCHAR F6BE
ENCODING 63166
SWIDTH 230 0
DWIDTH 3 0
BBX 2 10 0 -3
BITMAP
40
40
40
40
40
40
40
40
40
C0
ENDCHAR
STARTCHAR F6C3
ENCODING 63171
SWIDTH 230 0
DWIDTH 3 0
BBX 2 4 1 -5
BITMAP
C0
C0
80
80
ENDCHAR
ENDFONT
